<?xml version="1.0" encoding="UTF-8" standalone="no"?> <svg id="Line" xmlns="http://www.w3.org/2000/svg" viewBox="0 0 64 64"><title>1</title><path d="M31.92676,53.52637a3.74144,3.74144,0,0,0-7.48242.00011A3.74144,3.74144,0,0,0,31.92676,53.52637Zm-5.48242,0a1.74139,1.74139,0,0,1,3.48242.00007A1.74139,1.74139,0,0,1,26.44434,53.52637Z"/><path d="M52.44385,53.52637a3.7412,3.7412,0,0,0-7.48193.00011A3.7412,3.7412,0,0,0,52.44385,53.52637Zm-5.48194,0a1.74115,1.74115,0,0,1,3.48193.00007A1.74115,1.74115,0,0,1,46.96191,53.52637Z"/><path d="M56.80859,12.4126H18.41394a7.25786,7.25786,0,0,0-7.06385-5.67968H5a1,1,0,0,0,0,2h6.3501a5.23717,5.23717,0,0,1,5.04,3.83447L23.09448,39.131a4.43536,4.43536,0,0,0,1.74976,8.51648H54.44873a1.0002,1.0002,0,0,0-.00008-2H24.84424a2.44816,2.44816,0,0,1-.35059-4.87109l26.49317-3.83692c3.15478-.43994,5.78808-3.40771,6.55371-7.38427l2.37011-12.24952C60.37556,15.13329,59.1269,12.46149,56.80859,12.4126Zm1.13819,4.51465-2.37012,12.249c-.60352,3.13672-2.55908,5.46045-4.87158,5.7832L25.04254,38.67578,18.9187,14.4126H56.80029C57.87233,14.614,58.09891,15.919,57.94678,16.92725Z"/></svg>